<svg xmlns="http://www.w3.org/2000/svg" width="32" height="32" viewBox="0 0 32 32"><g class="nc-icon-wrapper"><rect x="2" y="7" width="28" height="18" rx="3" ry="3" fill="#e6e6e6" stroke-width="0"></rect><path fill="#fff" stroke-width="0" d="M6 18H19V21H6z"></path><path d="m24.5,13.5c1.519,0,2.902.569,3.96,1.5h1.54v-4H2v4h18.541c1.057-.931,2.44-1.5,3.959-1.5Z" fill="#1a1a1a" stroke-width="0"></path><path d="m27,7H5c-1.657,0-3,1.343-3,3v12c0,1.657,1.343,3,3,3h22c1.657,0,3-1.343,3-3v-12c0-1.657-1.343-3-3-3Zm2,15c0,1.103-.897,2-2,2H5c-1.103,0-2-.897-2-2v-12c0-1.103.897-2,2-2h22c1.103,0,2,.897,2,2v12Z" stroke-width="0" opacity=".15"></path><path d="m27,8H5c-1.105,0-2,.895-2,2v1c0-1.105.895-2,2-2h22c1.105,0,2,.895,2,2v-1c0-1.105-.895-2-2-2Z" fill="#fff" opacity=".2" stroke-width="0"></path><circle cx="24.5" cy="19.5" r="6" fill="#e6e6e6" stroke-width="0"></circle><path fill="#fff" stroke-width="0" d="M19 17H29V22H19z"></path><circle cx="24.5" cy="19.5" r="6" fill="none" stroke="#ed1c24" stroke-miterlimit="10"></circle><circle cx="21.75" cy="19.5" r=".75" fill="#1a1a1a" stroke-width="0"></circle><circle cx="24.25" cy="19.5" r=".75" fill="#1a1a1a" stroke-width="0"></circle><circle cx="26.75" cy="19.5" r=".75" fill="#1a1a1a" stroke-width="0"></circle></g></svg>