<svg width="800" height="512" viewBox="0 0 800 512" fill="none" xmlns="http://www.w3.org/2000/svg">
<g clip-path="url(#clip0_2034_18)">
<path d="M800 -0.410278H0V512.41H800V-0.410278Z" fill="black"/>
<path d="M171.539 185.641C178.513 183.282 186 182.051 193.795 182.051C227.847 182.051 256.257 206.257 262.718 238.359L310.924 228.513C299.847 173.949 251.642 132.819 193.795 132.819C180.565 132.819 167.847 134.974 155.949 138.973L171.539 185.641Z" fill="#FFF100"/>
<path d="M114.616 341.949L147.232 305.026C132.668 292.103 123.539 273.333 123.539 252.308C123.539 231.386 132.668 212.513 147.232 199.692L114.616 162.873C89.8983 184.82 74.3086 216.719 74.3086 252.411C74.3086 288 89.8983 319.999 114.616 341.949Z" fill="#00A3DF"/>
<path d="M262.718 266.462C256.153 298.564 227.846 322.667 193.794 322.667C186 322.667 178.512 321.436 171.435 319.077L155.846 365.744C167.743 369.743 180.564 371.897 193.794 371.897C251.641 371.897 299.846 330.872 310.923 276.308L262.718 266.462Z" fill="#EE4023"/>
<path d="M471.538 299.487C463.538 307.283 452.769 312 440.871 311.795C432.666 311.692 425.077 309.231 418.717 305.128L402.716 330.565C413.691 337.436 426.511 341.539 440.461 341.744C460.665 342.051 479.127 334.051 492.564 321.026L471.538 299.487ZM442.615 195.795C402.41 195.18 369.179 227.385 368.564 267.59C368.359 282.667 372.666 296.821 380.359 308.513L512.461 251.999C505.076 220.308 476.769 196.409 442.615 195.795ZM398.82 273.332C398.615 271.691 398.512 269.948 398.512 268.204C398.923 244.512 418.41 225.537 442.102 225.949C455.025 226.153 466.512 231.999 474.205 241.23L398.82 273.332ZM554 162.973V303.794L578.411 313.948L566.82 341.743L542.615 331.691C537.179 329.332 533.487 325.743 530.718 321.64C528.05 317.537 525.999 311.793 525.999 304.204V162.973H554ZM642.103 228.102C646.411 226.666 650.924 225.948 655.744 225.948C676.565 225.948 693.796 240.716 697.795 260.307L727.231 254.255C720.462 220.922 691.026 195.896 655.744 195.896C647.643 195.896 639.847 197.231 632.667 199.59L642.103 228.102ZM607.333 323.384L627.23 300.922C618.307 293.025 612.769 281.537 612.769 268.717C612.769 255.896 618.41 244.41 627.23 236.614L607.333 214.154C592.257 227.487 582.718 247.077 582.718 268.821C582.718 290.564 592.257 310.05 607.333 323.384ZM697.795 277.434C693.796 297.025 676.462 311.793 655.744 311.793C651.026 311.793 646.411 310.972 642.103 309.538L632.565 338.05C639.847 340.511 647.642 341.845 655.744 341.845C691.026 341.845 720.463 316.82 727.231 283.486L697.795 277.434Z" fill="white"/>
</g>
<defs>
<clipPath id="clip0_2034_18">
<rect width="800" height="512" rx="53" fill="white"/>
</clipPath>
</defs>
</svg>
