<svg width="800" height="514" viewBox="0 0 800 514" fill="none" xmlns="http://www.w3.org/2000/svg">
<g clip-path="url(#clip0_2034_15)">
<path d="M743.59 0.0769043H56.4103C25.3056 0.0769043 0 25.3825 0 56.4872V457.513C0 488.617 25.3056 513.923 56.4103 513.923H743.59C774.692 513.923 800 488.617 800 457.513V56.4872C800 25.3825 774.692 0.0769043 743.59 0.0769043Z" fill="white"/>
<path d="M342.113 410.015L48.2363 410.122V409.414C48.2363 409.026 48.705 406.504 49.2774 403.809C49.8507 401.116 50.7409 396.831 51.2579 394.288C51.7727 391.746 52.6548 387.425 53.2158 384.684C54.5963 377.99 55.9604 371.291 57.3071 364.59C57.8374 361.948 58.7204 357.626 59.2722 354.987C59.9758 351.609 60.6712 348.23 61.3615 344.849C61.9584 341.916 62.8661 337.433 63.3789 334.889C63.8917 332.346 64.7061 328.425 65.1891 326.176C65.6712 323.927 66.2876 320.886 66.5563 319.417C66.8261 317.951 67.6989 313.628 68.4958 309.814C69.1666 306.617 69.8189 303.416 70.4497 300.211C70.7276 298.745 71.6107 294.422 72.4127 290.608C73.2138 286.795 74.0938 282.473 74.3686 281.005C74.6435 279.538 75.5286 275.216 76.3348 271.402C77.143 267.587 78.0148 263.347 78.2712 261.977C78.5297 260.608 79.2353 257.087 79.8404 254.153C80.4445 251.218 81.5891 245.696 82.383 241.882C83.1779 238.067 84.5358 231.425 85.4004 227.119C86.2671 222.816 87.302 217.695 87.701 215.738C88.8733 209.987 90.0558 204.236 91.2507 198.489C91.8394 195.65 92.7963 191.009 93.3779 188.172C93.9604 185.335 94.8568 180.934 95.3707 178.392C95.8845 175.849 96.7615 171.608 97.3194 168.966C97.8774 166.326 98.8374 161.683 99.4527 158.651C100.068 155.618 101.099 150.977 101.743 148.336C102.387 145.695 103.298 142.494 103.768 141.224C104.236 139.951 105.532 137.196 106.646 135.097L108.671 131.285L110.512 128.873C111.524 127.548 113.332 125.452 114.529 124.217C115.726 122.983 117.744 121.124 119.017 120.088C120.288 119.051 122.129 117.652 123.106 116.979C124.085 116.307 126.006 115.128 127.375 114.361C128.744 113.594 130.666 112.59 131.644 112.129C132.622 111.669 134.623 110.827 136.09 110.259C137.556 109.693 140.357 108.743 142.313 108.149C144.269 107.554 147.942 106.657 150.474 106.158C153.007 105.657 157.007 104.989 159.367 104.672L163.655 104.095L457.716 103.985L751.778 103.871V104.578C751.778 104.967 751.306 107.489 750.731 110.183C750.004 113.591 749.29 117.001 748.589 120.415C747.986 123.35 747.111 127.592 746.639 129.841C745.973 133.041 745.311 136.242 744.657 139.444C744.037 142.477 743.086 147.119 742.541 149.759C741.996 152.4 741.113 156.722 740.58 159.362C740.047 162.004 739.158 166.325 738.608 168.965C737.966 172.046 737.332 175.129 736.706 178.214C736.213 180.659 735.318 185.06 734.72 187.995C734.122 190.928 733.16 195.571 732.584 198.31C732.008 201.048 731.13 205.29 730.633 207.735C730.136 210.18 729.243 214.582 728.646 217.515C728.049 220.449 727.09 225.092 726.513 227.832C725.937 230.57 725.079 234.731 724.605 237.079C723.289 243.601 721.964 250.123 720.631 256.642C720.149 258.989 719.291 263.151 718.724 265.889C717.996 269.385 717.276 272.882 716.561 276.382C715.941 279.414 715.053 283.734 714.589 285.986C714.124 288.234 713.255 292.475 712.656 295.409C711.954 298.849 711.25 302.286 710.54 305.724C709.975 308.464 709.089 312.786 708.57 315.329C708.053 317.872 707.151 322.274 706.57 325.109C705.987 327.946 705.034 332.587 704.455 335.424C703.874 338.26 703.005 342.503 702.521 344.85C701.863 348.049 701.211 351.25 700.56 354.452C699.86 357.881 699.142 361.307 698.405 364.728L697.334 369.669L696.058 373.086C695.356 374.966 694.301 377.465 693.712 378.639C693.127 379.812 691.93 381.883 691.054 383.241C690.178 384.597 688.957 386.336 688.342 387.105C687.726 387.873 685.873 389.856 684.221 391.514L681.223 394.524L678.337 396.575C676.749 397.705 675.037 398.852 674.537 399.125C674.034 399.4 672.121 400.377 670.285 401.294C668.45 402.213 665.857 403.384 664.524 403.893C663.19 404.405 660.549 405.274 658.655 405.825C656.76 406.377 654.73 406.921 654.144 407.034C653.556 407.146 651.519 407.567 649.617 407.971C647.714 408.374 643.872 408.975 641.082 409.308L636.005 409.913L342.128 410.015H342.113ZM237.559 334H245.207L245.422 333.437C245.542 333.127 245.638 332.4 245.638 331.82C245.638 331.241 245.891 329.134 246.199 327.138C246.507 325.14 247.229 320.547 247.806 316.928C248.381 313.309 249.242 307.867 249.72 304.835C250.175 301.963 250.607 299.087 251.018 296.209C251.253 294.497 251.539 293.097 251.655 293.097C251.77 293.097 252.264 293.853 252.753 294.778L253.641 296.459L255.613 298.447L257.585 300.434L260.012 301.406L262.439 302.377L265.332 302.752L268.225 303.126L271.896 302.902L275.568 302.675L279.543 301.647L283.519 300.616L285.653 299.644C286.827 299.109 288.907 297.939 290.276 297.048L292.767 295.427L295.088 293.106C296.365 291.832 298.166 289.785 299.089 288.558C300.014 287.334 300.77 286.242 300.77 286.133C300.77 286.025 301.224 285.266 301.779 284.447C302.334 283.63 303.468 281.358 304.301 279.403C305.135 277.447 306.435 273.926 307.194 271.578L308.573 267.31L309.286 263.613C309.677 261.58 310.182 258.218 310.407 256.144L310.814 252.371L310.578 249.17L310.343 245.969L309.599 242.768L308.858 239.567L307.656 237.171L306.455 234.773L304.134 232.314L301.814 229.854L299.068 228.435L296.322 227.016L293.299 226.291L290.275 225.568L287.252 225.347L284.229 225.124L280.862 225.511L277.493 225.898L274.745 226.601L271.996 227.303L269.608 228.408C268.295 229.015 266.383 230.048 265.361 230.701C264.339 231.357 263.284 232.108 263.017 232.373C262.751 232.639 262.112 233.132 261.599 233.467L260.665 234.079L261.317 230.954C261.677 229.236 261.977 227.631 261.985 227.385L261.999 226.94H248.957L247.815 234.143C247.185 238.105 246.192 244.227 245.608 247.749C244.318 255.517 243.014 263.282 241.694 271.045C241.112 274.468 240.151 279.911 239.557 283.138C238.964 286.366 238.095 291.088 237.625 293.632C237.156 296.174 236.272 300.975 235.663 304.3C234.944 308.214 234.218 312.127 233.485 316.038C232.79 319.716 232.08 323.391 231.357 327.064C230.775 329.997 230.213 332.76 230.105 333.198L229.911 333.999H237.559V334ZM270.482 292.877L267.513 293.056L265.573 292.712L263.631 292.369L261.66 291.47L259.688 290.569L258.311 289.254L256.934 287.94L256.139 286.162C255.701 285.184 255.14 283.522 254.891 282.468L254.437 280.555L254.619 277.489L254.801 274.426L255.717 269.623C256.409 265.952 257.079 262.276 257.728 258.597C258.33 255.173 259.242 250.157 259.754 247.449L260.685 242.526L262.724 240.83C263.846 239.898 265.622 238.646 266.672 238.051L268.58 236.968L271.069 236.198L273.559 235.427L276.76 235.238L279.961 235.05L282.569 235.606L285.175 236.161L287.015 237.008L288.854 237.855L290.396 239.406L291.94 240.957L292.771 242.6C293.229 243.504 293.872 245.271 294.199 246.528L294.795 248.814L294.613 255.573L294.43 262.332L293.517 266.327C293.015 268.524 292.059 271.885 291.392 273.795L290.181 277.271L288.696 280.083C287.879 281.631 286.621 283.721 285.899 284.728C285.177 285.735 284.025 287.044 283.34 287.631C282.51 288.336 281.661 289.017 280.792 289.673L279.489 290.646L276.47 291.673L273.452 292.699L270.482 292.877ZM344.34 302.655L348.253 302.7L352.164 302.344C354.317 302.148 357.837 301.738 359.988 301.434C362.142 301.131 365.859 300.452 368.251 299.927L372.598 298.97L372.816 297.366C372.934 296.486 373.423 293.861 373.901 291.535L374.77 287.305L374.577 287.114L374.385 286.922L373.056 287.563C372.325 287.916 370.047 288.759 367.995 289.435L364.264 290.663L360.348 291.423L356.432 292.18L350.209 292.194L343.984 292.205L341.85 291.524C340.676 291.15 338.95 290.465 338.014 290L336.312 289.158L334.908 287.889L333.503 286.619L332.407 284.705L331.31 282.788L330.623 280.386L329.936 277.982L329.932 273.534L329.927 269.087L330.536 265.121L331.148 261.153L336.5 260.903L341.852 260.652L361.637 260.78L381.422 260.907L382.019 258.373C382.348 256.979 382.851 254.098 383.136 251.971L383.655 248.103L383.666 244.849L383.678 241.595L383.115 239.166L382.55 236.736L381.619 235.129C381.108 234.245 380.204 232.963 379.614 232.28C379.023 231.598 377.968 230.635 377.269 230.143C376.569 229.65 375.197 228.819 374.219 228.299L372.441 227.354L369.335 226.605L366.227 225.857L362.4 225.491L358.571 225.126L355.015 225.358L351.458 225.589L347.189 226.409L342.921 227.23L340.253 228.295C338.785 228.88 336.545 229.952 335.274 230.673C334.002 231.394 332.243 232.567 331.364 233.279C330.481 233.993 328.956 235.38 327.975 236.362C326.992 237.344 325.538 239.107 324.746 240.28C323.952 241.455 322.736 243.535 322.04 244.904C321.347 246.274 320.444 248.195 320.032 249.172C319.623 250.15 318.874 252.151 318.374 253.617C317.871 255.086 317.081 257.886 316.621 259.843C316.077 262.213 315.608 264.599 315.213 266.999L314.645 270.599L314.651 275.891L314.657 281.184L315.196 283.495C315.493 284.767 316.063 286.688 316.459 287.764C316.855 288.84 317.591 290.44 318.093 291.321C318.594 292.202 319.664 293.617 320.47 294.471C321.275 295.322 322.737 296.616 323.715 297.344C324.692 298.071 326.433 299.096 327.583 299.619L329.674 300.571L332.59 301.277C334.193 301.665 336.614 302.124 337.969 302.298C339.319 302.468 342.188 302.632 344.34 302.655ZM351.038 252.55C341.192 252.55 333.136 252.48 333.136 252.393C333.136 252.308 333.556 251.067 334.07 249.636C334.583 248.206 335.486 246.079 336.073 244.909L337.145 242.778L339.497 240.439L341.85 238.097L344.163 236.993C345.433 236.385 347.114 235.723 347.897 235.521C348.68 235.32 350.919 235.053 352.875 234.929L356.433 234.7L359.166 235.052L361.896 235.403L363.881 236.312L365.867 237.222L366.956 238.396C367.554 239.041 368.267 239.993 368.542 240.508L369.037 241.447L369.366 243.532L369.695 245.615L369.318 249.083L368.943 252.553H351.038V252.55ZM457.449 302.657L461.364 302.7L465.807 302.173C468.251 301.884 471.504 301.404 473.037 301.106C474.89 300.733 476.729 300.296 478.55 299.798C480.05 299.373 481.407 298.915 481.565 298.779C481.724 298.643 482.146 297.03 482.506 295.193C482.866 293.356 483.318 290.893 483.512 289.719C483.705 288.545 483.806 287.522 483.735 287.445C483.663 287.368 483.401 287.468 483.152 287.665C482.903 287.864 481.158 288.598 479.274 289.297L475.85 290.569L470.972 291.514L466.094 292.458L461.948 292.318L457.801 292.176L455.446 291.358L453.09 290.54L451.27 288.95L449.452 287.357L448.244 285.157L447.036 282.959L446.46 280.016L445.885 277.076L445.89 273.259L445.893 269.443L446.591 264.819L447.291 260.194L448.03 257.704C448.436 256.334 448.898 254.734 449.053 254.148C449.209 253.56 449.86 251.88 450.502 250.411C451.143 248.945 452.288 246.677 453.045 245.373L454.421 243.002L456.112 241.249L457.803 239.496L459.592 238.387L461.384 237.276L463.684 236.567C464.948 236.178 467.184 235.672 468.651 235.445L471.319 235.029L475.23 235.225L479.143 235.42L483.767 236.346L488.391 237.27L490.271 237.972C491.305 238.357 492.196 238.675 492.253 238.675C492.308 238.675 492.556 237.354 492.804 235.739C493.052 234.127 493.493 231.471 493.784 229.84C494.076 228.207 494.245 226.802 494.157 226.717C494.072 226.631 492.683 226.41 491.07 226.226C489.457 226.043 485.072 225.717 481.329 225.5L474.519 225.11L469.716 225.477L464.915 225.846L461.357 226.593L457.8 227.34L455.51 228.256C454.25 228.76 452.406 229.67 451.41 230.278C450.455 230.858 449.516 231.464 448.594 232.093C448.04 232.485 446.363 234.011 444.863 235.487L442.14 238.167L440.618 240.395C439.783 241.62 438.336 244.175 437.404 246.073L435.709 249.523L434.41 253.256C433.696 255.311 432.698 258.672 432.194 260.726L431.276 264.461L430.943 267.841L430.611 271.22L430.614 275.666L430.618 280.111L430.953 282.697L431.289 285.284L432.354 287.945L433.419 290.605L434.651 292.528L435.879 294.451L437.835 296.377L439.793 298.303L441.862 299.398L443.934 300.49L446.652 301.246C448.146 301.66 450.307 302.137 451.454 302.305C452.6 302.472 455.298 302.629 457.452 302.652H457.449V302.657ZM515.955 302.526L520.756 302.388L523.78 301.614L526.804 300.839L528.76 299.916C529.836 299.408 531.596 298.403 532.671 297.684C533.748 296.966 535.415 295.6 536.373 294.649C537.332 293.697 538.754 292.075 539.534 291.042C540.313 290.009 540.998 289.212 541.055 289.27C541.114 289.327 540.934 290.97 540.656 292.923C540.38 294.877 540.15 297.475 540.146 298.698L540.14 300.92H553.195L553.394 295.853L553.593 290.785L554.525 284.204C555.037 280.585 555.865 275.223 556.365 272.289C556.862 269.356 557.73 264.395 558.292 261.264C558.853 258.132 559.742 253.251 560.266 250.414L561.222 245.258L561.255 240.803L561.286 236.348L560.279 234.289L559.272 232.23L557.907 230.919L556.54 229.607L554.299 228.473L552.055 227.336L548.712 226.592L545.37 225.847L540.769 225.498L536.167 225.148L530.24 225.515C526.978 225.716 522.392 226.114 520.045 226.399L515.776 226.917L512.867 226.928L509.958 226.939L509.535 228.986C509.302 230.11 508.655 232.782 508.098 234.924C507.539 237.066 507.136 238.87 507.198 238.932C507.261 238.995 508.817 238.642 510.655 238.148C512.493 237.652 516.399 236.84 519.334 236.338L524.668 235.43L529.47 235.233L534.272 235.035L537.366 235.577L540.46 236.119L542.524 237.137L544.588 238.157L545.744 239.88L546.901 241.603L546.885 244.318L546.867 247.035L546.254 250.014L545.64 252.996L532.842 253.042L520.044 253.087L515.856 254.236C513.552 254.868 511.001 255.707 510.187 256.098C509.373 256.493 508.558 256.815 508.377 256.815C508.196 256.815 506.826 257.573 505.332 258.504L502.616 260.191L500.477 262.326C499.3 263.501 497.797 265.262 497.137 266.24C496.475 267.217 495.403 269.26 494.752 270.78L493.569 273.543L493.026 276.648L492.483 279.754V286.272L493 288.986L493.52 291.699L494.483 293.469C495.013 294.441 495.986 295.868 496.643 296.637L497.84 298.036L499.967 299.328L502.094 300.622L504.53 301.309C505.869 301.687 507.907 302.147 509.06 302.33L511.154 302.659L515.956 302.522H515.955V302.526ZM520.401 292.578L517.556 292.728L515.671 292.247C514.635 291.984 513.062 291.396 512.177 290.94L510.568 290.112L509.688 289.067C509.205 288.49 508.467 287.363 508.047 286.558L507.285 285.093L507.136 281.675L506.985 278.255L507.588 276.181C507.919 275.042 508.698 273.06 509.318 271.783L510.445 269.457L512.602 267.317L514.758 265.175L517.048 264.073L519.336 262.972L522.181 262.295L525.026 261.618H542.811L543.374 261.852L543.936 262.084L543.463 264.877C543.202 266.411 542.582 269.188 542.081 271.046C541.584 272.906 540.703 275.637 540.127 277.117C539.549 278.598 539.076 279.908 539.076 280.026C539.076 280.146 538.492 281.224 537.777 282.424L536.477 284.605L534.345 286.719C533.173 287.88 532.083 288.831 531.926 288.831C531.769 288.831 531.05 289.233 530.328 289.721L529.018 290.609L526.133 291.523L523.249 292.435L520.401 292.578ZM636.176 302.652L639.554 302.695L642.756 302.175C644.517 301.89 646.757 301.43 647.736 301.153C648.713 300.875 650.475 300.158 651.647 299.557L653.782 298.464L655.618 296.847L657.453 295.231L659.387 292.653C660.451 291.235 661.414 289.835 661.527 289.54L661.733 289.006L661.553 290.785C661.426 291.975 661.262 293.161 661.062 294.343C660.889 295.32 660.645 297.201 660.515 298.521L660.279 300.921H674.234V296.12L675.297 287.049C675.881 282.06 676.746 275.419 677.218 272.288C677.69 269.157 678.419 264.678 678.838 262.33C679.255 259.983 679.997 255.739 680.484 252.905C680.972 250.069 681.852 245.106 682.44 241.879C683.028 238.65 683.971 233.528 684.534 230.497C685.096 227.465 685.971 222.742 686.477 220.004C686.984 217.267 687.89 212.463 688.492 209.334C689.123 206.069 689.774 202.808 690.447 199.553C690.92 197.305 691.307 195.343 691.306 195.196V194.928H676.082L675.857 197.152C675.734 198.374 675.15 202.415 674.562 206.133C673.864 210.522 673.153 214.909 672.429 219.292C672.008 221.822 671.591 224.351 671.178 226.881L670.987 228.066L670.387 227.811C670.057 227.671 668.265 227.173 666.408 226.707L663.029 225.858L658.406 225.497L653.78 225.137L649.868 225.5L645.956 225.866L642.399 226.765L638.842 227.664L635.464 229.312L632.084 230.96L629.593 232.801L627.104 234.644L624.953 236.952C623.771 238.218 622.063 240.317 621.156 241.611L619.511 243.967L617.577 247.99C616.514 250.203 615.22 253.133 614.702 254.503C614.183 255.873 613.27 258.908 612.67 261.248L611.582 265.505L611.046 271.031L610.51 276.556L610.912 281.001L611.317 285.448L611.792 287.048C612.056 287.928 612.607 289.497 613.019 290.532L613.77 292.419L615.139 294.272L616.509 296.126L618.072 297.406L619.634 298.687L621.769 299.748C622.944 300.328 624.911 301.083 626.145 301.42C627.376 301.758 629.377 302.164 630.591 302.321C631.805 302.481 634.316 302.63 636.176 302.652ZM642.241 292.563L639.554 292.704L637.743 292.378C636.746 292.199 635.151 291.717 634.197 291.309L632.465 290.567L631.007 289.371L629.549 288.177L628.466 286.103L627.382 284.029L626.888 281.717L626.395 279.404L626.437 274.78L626.478 270.157L627.053 266.066L627.626 261.976L628.517 259.132C629.009 257.567 629.412 256.089 629.414 255.849C629.418 255.611 629.9 254.331 630.49 253.006C631.179 251.473 631.907 249.957 632.674 248.462C633.289 247.287 634.435 245.458 635.221 244.395C636.01 243.333 637.414 241.732 638.341 240.837C639.268 239.946 640.742 238.771 641.619 238.233L643.211 237.253L646.008 236.286L648.805 235.318L654.673 235.315H660.542L663.92 236.253C665.78 236.768 667.753 237.366 668.306 237.582L669.312 237.973L669.116 238.949C669.01 239.486 668.585 241.846 668.177 244.193C667.769 246.54 666.963 251.023 666.387 254.153C665.812 257.283 664.928 262.005 664.422 264.645C663.917 267.285 663.186 270.647 662.796 272.113C662.396 273.62 661.99 275.126 661.577 276.629C661.295 277.645 660.623 279.407 660.086 280.542C659.547 281.676 658.605 283.326 657.991 284.205C657.377 285.085 656.342 286.307 655.688 286.916C655.032 287.527 653.616 288.61 652.541 289.325L650.585 290.627L647.757 291.524L644.93 292.422L642.241 292.563ZM118.774 300.921H127.415L128.035 297.098C128.376 294.995 129.042 290.953 129.515 288.117L131.471 276.379C132.074 272.76 132.979 267.398 133.48 264.465C133.982 261.53 134.78 256.978 135.252 254.351C135.725 251.72 136.201 249.479 136.31 249.37L136.51 249.171H182.985L183.244 249.43L183.502 249.688L183.098 251.742C182.877 252.872 182.222 256.355 181.642 259.486C181.063 262.616 180.089 267.897 179.476 271.225C178.833 274.724 178.179 278.22 177.513 281.716C177.044 284.161 176.094 289.282 175.402 293.097C174.712 296.912 174.148 300.233 174.15 300.478L174.154 300.922H191.509L191.893 298.7C192.105 297.478 192.444 295.277 192.649 293.809C192.852 292.342 193.345 289.218 193.742 286.873C194.139 284.526 194.932 279.883 195.505 276.558C196.077 273.233 197.037 267.55 197.636 263.93C198.235 260.311 199.124 255.029 199.612 252.194C200.229 248.633 200.872 245.076 201.54 241.524C202.113 238.491 203.069 233.37 203.664 230.14C204.259 226.914 205.148 222.033 205.642 219.292C206.137 216.554 207.037 211.592 207.645 208.267C208.252 204.942 209.018 201.062 209.347 199.641L209.946 197.063H192.374L192.135 198.753C192.005 199.68 191.58 202.282 191.192 204.532C190.804 206.781 190.1 210.783 189.626 213.424C189.152 216.066 188.287 221.107 187.702 224.629C187.129 228.078 186.577 231.53 186.047 234.988L185.454 238.943L172.556 239.204L159.658 239.465L148.856 239.208C142.914 239.068 138.02 238.924 137.979 238.89C137.939 238.855 138.141 237.474 138.428 235.818C138.807 233.684 139.21 231.555 139.637 229.43C140.183 226.706 140.713 223.978 141.227 221.247C141.725 218.607 142.287 215.327 142.478 213.957C142.669 212.589 143.07 210.307 143.369 208.888C143.667 207.471 144.233 204.483 144.627 202.25C145.02 200.016 145.439 197.935 145.559 197.627L145.775 197.062H128.344L127.787 200.174C127.479 201.886 127.07 204.326 126.877 205.598C126.684 206.869 126.034 210.951 125.434 214.668C124.834 218.385 123.948 223.907 123.465 226.938L121.513 239.209C120.827 243.484 120.103 247.752 119.343 252.013C118.71 255.513 118.065 259.01 117.408 262.506C116.945 264.952 116.064 269.593 115.449 272.821C114.804 276.204 114.138 279.584 113.454 282.959C112.972 285.306 112.439 288.027 112.271 289.005C112.101 289.983 111.551 292.805 111.047 295.275C110.543 297.744 110.131 300.025 110.131 300.343V300.919H118.774V300.921ZM214.444 300.921H222.094L222.309 300.359C222.429 300.048 222.526 299.237 222.526 298.556C222.526 297.873 223.008 294.324 223.594 290.671C224.937 282.345 226.312 274.025 227.721 265.709C228.326 262.205 228.96 258.708 229.628 255.216C230.194 252.283 231.064 247.72 231.56 245.081C232.056 242.44 233.032 237.415 233.729 233.914C234.425 230.414 235.081 227.41 235.187 227.239L235.381 226.926L227.645 227.022L219.908 227.117L219.262 231.743C218.909 234.285 218.134 239.328 217.541 242.946C216.949 246.564 216.053 252.088 215.549 255.216C214.94 258.958 214.29 262.693 213.6 266.422C213.031 269.453 212.159 274.094 211.662 276.735C211.166 279.377 210.274 284.019 209.681 287.051C209.089 290.084 208.294 294.085 207.914 295.944C207.534 297.803 207.127 299.683 207.008 300.123L206.793 300.922H214.444V300.921ZM393.377 300.921H400.97L401.198 297.708C401.325 295.942 401.753 292.379 402.153 289.794C402.553 287.208 403.373 282.052 403.973 278.336C404.732 273.742 405.558 269.158 406.453 264.587C407.218 260.743 408.08 256.921 408.372 256.095C408.663 255.27 408.902 254.374 408.902 254.108C408.902 253.838 409.473 252.377 410.171 250.862C410.868 249.345 412.168 247.023 413.06 245.7L414.681 243.296L416.851 241.286L419.021 239.278L421.696 238L424.372 236.721L428.463 236.743L432.551 236.764L434.563 237.364C435.668 237.694 436.669 237.965 436.785 237.965C436.902 237.965 436.997 237.588 436.997 237.125C436.997 236.665 437.398 234.322 437.887 231.92C438.376 229.519 438.776 227.453 438.776 227.329C438.776 227.205 437.616 226.751 436.197 226.32C434.779 225.889 432.818 225.438 431.84 225.316L430.062 225.096L427.75 225.505C426.478 225.73 424.588 226.226 423.549 226.608C422.508 226.991 420.792 227.856 419.734 228.533C418.677 229.21 417.03 230.529 416.078 231.464C415.124 232.399 413.519 234.285 412.512 235.654C411.729 236.718 410.949 237.786 410.174 238.855L409.665 239.566L409.974 238.144C410.144 237.36 410.618 234.799 411.026 232.452C411.433 230.105 411.856 227.903 411.957 227.562L412.148 226.938H398.583V227.797C398.583 228.268 398.182 231.109 397.695 234.109C397.205 237.112 396.397 242.125 395.902 245.256C395.406 248.387 394.522 253.828 393.943 257.35C393.324 261.089 392.671 264.825 391.983 268.553C390.645 275.673 389.275 282.787 387.875 289.894C387.276 292.927 386.559 296.507 386.284 297.853C386.006 299.197 385.78 300.437 385.78 300.608V300.921H393.377ZM573.644 300.921H581.408V296.168L582.301 290.275C582.794 287.035 583.606 281.9 584.107 278.87C584.607 275.837 585.23 271.997 585.492 270.332C585.754 268.671 586.449 265.07 587.033 262.331C587.621 259.591 588.352 256.631 588.661 255.751C588.971 254.871 589.224 253.946 589.227 253.697C589.232 253.449 589.893 251.851 590.699 250.147L592.165 247.047L594.1 244.477L596.033 241.909L598.148 240.318C599.311 239.442 601.183 238.283 602.308 237.737L604.35 236.748L608.795 236.777L613.241 236.809L614.992 237.37L616.742 237.933L617.037 237.75L617.332 237.567L617.349 236.433C617.356 235.809 617.737 233.486 618.193 231.271L619.026 227.244L618.091 226.879C617.194 226.548 616.29 226.239 615.377 225.954L613.599 225.393L610.398 225.402L607.197 225.41L604.588 226.329L601.979 227.246L600.02 228.428L598.062 229.609L595.515 232.277L592.969 234.945L591.6 237.014C590.849 238.152 590.186 239.033 590.129 238.97C590.07 238.908 590.48 236.536 591.037 233.7C591.594 230.863 592.058 228.182 592.066 227.742L592.082 226.94H578.921V227.168C578.921 227.292 578.594 229.574 578.192 232.236C577.791 234.9 576.985 240.039 576.404 243.658C575.704 247.988 574.995 252.315 574.278 256.641C573.655 260.38 572.999 264.116 572.314 267.845C571.821 270.485 570.944 275.128 570.366 278.16C569.788 281.193 568.837 286.075 568.255 289.009L566.539 297.633L565.881 300.922H573.644V300.921ZM229.49 214.128L231.648 214.136L233.365 213.552L235.082 212.967L236.601 211.426L238.121 209.885L238.92 207.831L239.721 205.777L239.749 202.754L239.778 199.732L239.067 198.552L238.355 197.371L237.117 196.606L235.878 195.839H230.531L228.71 196.654L226.89 197.468L225.833 198.6L224.777 199.732L223.946 201.689L223.116 203.644L222.959 206.691L222.804 209.738L223.575 211.254L224.348 212.768L225.839 213.445L227.33 214.121L229.49 214.128Z" fill="#B3131B"/>
</g>
<defs>
<clipPath id="clip0_2034_15">
<rect width="800" height="514" fill="white"/>
</clipPath>
</defs>
</svg>
